<svg width="249" height="200" viewBox="0 0 249 200" fill="none" xmlns="http://www.w3.org/2000/svg">
<path d="M67.7025 69.2001L30.8011 100L67.7025 130.8C68.9503 131.799 69.9862 133.036 70.7493 134.44C71.5124 135.845 71.9873 137.387 72.1461 138.977C72.3049 140.567 72.1445 142.173 71.6743 143.701C71.204 145.228 70.4334 146.646 69.4076 147.872C68.3819 149.097 67.1217 150.106 65.7009 150.838C64.2802 151.569 62.7276 152.01 61.1342 152.134C59.5408 152.258 57.9387 152.062 56.422 151.558C54.9053 151.054 53.5046 150.253 52.3019 149.2L4.30013 109.2C2.95516 108.074 1.8735 106.666 1.13132 105.077C0.389149 103.487 0.0045166 101.754 0.0045166 100C0.0045166 98.2459 0.389149 96.513 1.13132 94.9234C1.8735 93.3339 2.95516 91.9264 4.30013 90.8001L52.3019 50.8001C54.7512 48.8404 57.8706 47.9176 60.992 48.2293C64.1133 48.5411 66.9885 50.0626 69.0018 52.4681C71.0152 54.8735 72.0066 57.9716 71.7637 61.099C71.5208 64.2264 70.063 67.1343 67.7025 69.2001V69.2001ZM243.709 90.8001L195.707 50.8001C193.258 48.8404 190.138 47.9176 187.017 48.2293C183.896 48.5411 181.021 50.0626 179.007 52.4681C176.994 54.8735 176.002 57.9716 176.245 61.099C176.488 64.2264 177.946 67.1343 180.307 69.2001L217.308 100L180.307 130.8C179.087 131.804 178.08 133.04 177.343 134.437C176.607 135.833 176.155 137.363 176.016 138.936C175.876 140.509 176.051 142.094 176.53 143.598C177.009 145.103 177.783 146.497 178.807 147.7C179.941 149.036 181.35 150.111 182.938 150.853C184.526 151.595 186.254 151.986 188.007 152C190.823 151.999 193.548 151.008 195.707 149.2L243.709 109.2C245.054 108.074 246.136 106.666 246.878 105.077C247.62 103.487 248.005 101.754 248.005 100C248.005 98.2459 247.62 96.513 246.878 94.9234C246.136 93.3339 245.054 91.9264 243.709 90.8001V90.8001ZM160.106 0.700111C157.108 -0.365581 153.81 -0.207528 150.928 1.14005C148.046 2.48763 145.81 4.91627 144.705 7.90011L80.7029 183.9C79.6372 186.898 79.7953 190.195 81.1429 193.078C82.4905 195.96 84.9192 198.195 87.9032 199.3C89.2177 199.774 90.606 200.011 92.0033 200C94.4706 200.005 96.8793 199.249 98.9014 197.835C100.924 196.421 102.461 194.419 103.304 192.1L167.306 16.1001C168.372 13.1021 168.214 9.805 166.866 6.92268C165.519 4.04036 163.09 1.80482 160.106 0.700111V0.700111Z" fill="white"/>
</svg>
