<svg width="200" height="200" viewBox="0 0 200 200" fill="none" xmlns="http://www.w3.org/2000/svg">
<path d="M100.023 135C90.4797 135 81.3276 131.313 74.5797 124.749C67.8318 118.185 64.0408 109.283 64.0408 100C64.0408 90.7174 67.8318 81.815 74.5797 75.2513C81.3276 68.6875 90.4797 65 100.023 65C109.566 65 118.718 68.6875 125.466 75.2513C132.214 81.815 136.005 90.7174 136.005 100C136.005 109.283 132.214 118.185 125.466 124.749C118.718 131.313 109.566 135 100.023 135M176.407 109.7C176.818 106.5 177.127 103.3 177.127 100C177.127 96.7 176.818 93.4 176.407 90L198.099 73.7C200.052 72.2 200.566 69.5 199.333 67.3L178.772 32.7C177.538 30.5 174.762 29.6 172.5 30.5L146.902 40.5C141.556 36.6 136.005 33.2 129.528 30.7L125.724 4.20002C125.515 3.02219 124.884 1.95429 123.944 1.18553C123.003 0.416778 121.813 -0.00319774 120.584 1.83347e-05H79.4616C76.8915 1.83347e-05 74.7326 1.80002 74.3214 4.20002L70.5176 30.7C64.0408 33.2 58.4894 36.6 53.1435 40.5L27.545 30.5C25.2832 29.6 22.5075 30.5 21.2738 32.7L0.712765 67.3C-0.623704 69.5 -0.0068705 72.2 1.94643 73.7L23.6384 90C23.2271 93.4 22.9187 96.7 22.9187 100C22.9187 103.3 23.2271 106.5 23.6384 109.7L1.94643 126.3C-0.0068705 127.8 -0.623704 130.5 0.712765 132.7L21.2738 167.3C22.5075 169.5 25.2832 170.3 27.545 169.5L53.1435 159.4C58.4894 163.4 64.0408 166.8 70.5176 169.3L74.3214 195.8C74.7326 198.2 76.8915 200 79.4616 200H120.584C123.154 200 125.313 198.2 125.724 195.8L129.528 169.3C136.005 166.7 141.556 163.4 146.902 159.4L172.5 169.5C174.762 170.3 177.538 169.5 178.772 167.3L199.333 132.7C200.566 130.5 200.052 127.8 198.099 126.3L176.407 109.7V109.7Z" fill="white"/>
</svg>
