<svg width="201" height="201" viewBox="0 0 201 201" fill="none" xmlns="http://www.w3.org/2000/svg">
<path d="M137.29 107.454C147.142 99.7448 154.333 89.1736 157.863 77.2107C161.393 65.2478 161.086 52.4881 156.984 40.707C152.883 28.9258 145.191 18.7089 134.979 11.4777C124.767 4.2465 112.543 0.360596 100.007 0.360596C87.4705 0.360596 75.2461 4.2465 65.034 11.4777C54.822 18.7089 47.1302 28.9258 43.0287 40.707C38.9273 52.4881 38.6201 65.2478 42.1499 77.2107C45.6797 89.1736 52.8711 99.7448 62.7234 107.454C45.8412 114.18 31.1109 125.337 20.1029 139.734C9.09486 154.132 2.22174 171.23 0.216256 189.207C0.0710885 190.519 0.187279 191.847 0.55819 193.115C0.929102 194.383 1.54747 195.566 2.37799 196.596C4.05531 198.676 6.49494 200.009 9.1602 200.3C11.8255 200.592 14.498 199.818 16.59 198.15C18.6819 196.482 20.0218 194.056 20.315 191.405C22.5217 171.869 31.8887 153.825 46.6265 140.723C61.3642 127.62 80.4394 120.377 100.208 120.377C119.976 120.377 139.051 127.62 153.789 140.723C168.526 153.825 177.893 171.869 180.1 191.405C180.373 193.861 181.552 196.129 183.407 197.772C185.263 199.414 187.665 200.315 190.149 200.3H191.255C193.889 199.999 196.297 198.674 197.953 196.615C199.61 194.556 200.381 191.929 200.098 189.307C198.083 171.279 191.173 154.137 180.109 139.717C169.044 125.298 154.242 114.145 137.29 107.454V107.454ZM100.007 100.358C92.0563 100.358 84.2845 98.0133 77.674 93.6206C71.0636 89.2278 65.9114 82.9843 62.8689 75.6795C59.8265 68.3746 59.0304 60.3366 60.5814 52.5818C62.1325 44.8271 65.9609 37.7038 71.5826 32.113C77.2044 26.5221 84.3669 22.7147 92.1644 21.1721C99.962 19.6296 108.044 20.4213 115.39 23.4471C122.735 26.4728 129.013 31.5968 133.43 38.1709C137.847 44.7451 140.204 52.4743 140.204 60.3809C140.204 70.9835 135.969 81.1518 128.431 88.6489C120.892 96.1461 110.668 100.358 100.007 100.358Z" fill="white"/>
</svg>
