<svg width="168" height="168" viewBox="0 0 168 168" fill="none" xmlns="http://www.w3.org/2000/svg">
<path d="M129 167.333C94.9774 167.289 62.3609 153.754 38.3033 129.697C14.2457 105.639 0.710725 73.0226 0.666626 39.0001C0.666626 28.8334 4.70531 19.0832 11.8942 11.8943C19.0831 4.7054 28.8333 0.666724 39 0.666724C41.1528 0.650326 43.302 0.84571 45.4166 1.25006C47.4609 1.55256 49.4705 2.05497 51.4166 2.75006C52.7854 3.2303 54.005 4.0595 54.955 5.15566C55.905 6.25182 56.5525 7.57696 56.8333 9.00006L68.25 59.0001C68.5577 60.3572 68.5206 61.7699 68.1422 63.1091C67.7637 64.4483 67.0559 65.6714 66.0833 66.6667C65 67.8334 64.9166 67.9167 54.6666 73.2501C62.8749 91.2572 77.2766 105.718 95.25 114C100.667 103.667 100.75 103.583 101.917 102.5C102.912 101.527 104.135 100.82 105.474 100.441C106.813 100.063 108.226 100.026 109.583 100.333L159.583 111.75C160.961 112.07 162.234 112.735 163.284 113.682C164.334 114.63 165.125 115.829 165.583 117.167C166.287 119.145 166.816 121.18 167.167 123.25C167.502 125.344 167.669 127.462 167.667 129.583C167.513 139.707 163.361 149.358 156.116 156.43C148.872 163.503 139.124 167.423 129 167.333V167.333Z" fill="white"/>
</svg>
